<?xml version="1.0"?>
<svg xmlns="http://www.w3.org/2000/svg" height="512px" viewBox="-21 -21 682.66644 682" width="512px"><g><path d="m256.78125 304.140625 42.078125-42.078125c-46.339844-16.519531-100.179687-6.265625-137.21875 30.773438-51.238281 51.246093-51.238281 134.609374 0 185.847656 51.242187 51.242187 134.609375 51.242187 185.839844 0 36.972656-36.960938 47.269531-90.640625 30.890625-136.910156l-42.191406 42.191406c.449218 21.480468-7.488282 43.097656-23.84375 59.449218-31.816407 31.824219-83.597657 31.824219-115.429688 0-31.816406-31.820312-31.816406-83.605468 0-115.421874 16.464844-16.464844 38.257812-24.402344 59.875-23.851563zm0 0" data-original="#000000" class="active-path" data-old_color="#000000" fill="#FF5A3C"/><path d="m407.054688 313.089844c29.84375 62.75 18.828124 140.246094-33.042969 192.121094-65.859375 65.859374-173.027344 65.859374-238.886719 0-65.859375-65.859376-65.859375-173.027344 0-238.886719 51.945312-51.949219 129.59375-62.925781 192.394531-32.921875l63.019531-63.019532c-98.402343-62.136718-230.398437-50.371093-316.0625 35.292969-99.300781 99.300781-99.300781 260.878907 0 360.179688 99.300782 99.300781 260.878907 99.300781 360.179688 0 85.589844-85.585938 97.417969-217.445313 35.445312-315.8125zm0 0" data-original="#000000" class="active-path" data-old_color="#000000" fill="#FF5A3C"/><path d="m638.75 85.78125c-2.808594-8.066406-9.820312-13.679688-18.308594-14.664062l-45.929687-5.296876-5.300781-45.925781c-.980469-8.488281-6.59375-15.5-14.660157-18.3125-8.0625-2.808593-16.824219-.804687-22.863281 5.234375l-90.796875 90.796875c-4.789063 4.789063-7.09375 11.394531-6.316406 18.128907l6.570312 56.925781-171.554687 171.550781c-15.578125-5.589844-33.699219-2.167969-46.152344 10.292969-17.203125 17.199219-17.203125 45.1875 0 62.382812 17.195312 17.199219 45.179688 17.203125 62.382812 0 12.460938-12.460937 15.882813-30.574219 10.292969-46.15625l171.550781-171.554687 56.925782 6.574218c6.726562.777344 13.339844-1.527343 18.128906-6.320312l90.796875-90.792969c6.039063-6.042969 8.046875-14.800781 5.234375-22.863281zm0 0" data-original="#000000" class="active-path" data-old_color="#000000" fill="#FF5A3C"/></g> </svg>
